<svg width="50" height="50" viewBox="0 0 50 50" fill="none" xmlns="http://www.w3.org/2000/svg">
<path d="M24.5999 43.05C19.8849 43.05 15.7764 41.4869 12.2743 38.3606C8.77219 35.2344 6.7649 31.3308 6.2524 26.65H10.4549C10.9332 30.2033 12.5134 33.1417 15.1955 35.465C17.8776 37.7883 21.0124 38.95 24.5999 38.95C28.5974 38.95 31.9884 37.5577 34.773 34.7731C37.5576 31.9885 38.9499 28.5975 38.9499 24.6C38.9499 20.6025 37.5576 17.2115 34.773 14.4269C31.9884 11.6423 28.5974 10.25 24.5999 10.25C22.2424 10.25 20.0387 10.7967 17.9887 11.89C15.9387 12.9833 14.2132 14.4867 12.8124 16.4H18.4499V20.5H6.1499V8.19999H10.2499V13.0175C11.9924 10.8308 14.1193 9.13958 16.6305 7.94374C19.1418 6.74791 21.7982 6.14999 24.5999 6.14999C27.1624 6.14999 29.5626 6.63687 31.8005 7.61062C34.0384 8.58437 35.9859 9.89979 37.643 11.5569C39.3001 13.214 40.6155 15.1615 41.5893 17.3994C42.563 19.6373 43.0499 22.0375 43.0499 24.6C43.0499 27.1625 42.563 29.5627 41.5893 31.8006C40.6155 34.0385 39.3001 35.986 37.643 37.6431C35.9859 39.3002 34.0384 40.6156 31.8005 41.5894C29.5626 42.5631 27.1624 43.05 24.5999 43.05ZM30.3399 33.21L22.5499 25.42V14.35H26.6499V23.78L33.2099 30.34L30.3399 33.21Z" fill="black"/>
</svg>
